<svg width="168" height="24" viewBox="0 0 168 24" fill="none" xmlns="http://www.w3.org/2000/svg">
<path d="M13 10H17.5L17 12H13V21H11V12H7V10H11V8.128C11 6.345 11.186 5.698 11.534 5.046C11.875 4.40181 12.4018 3.87501 13.046 3.534C13.698 3.186 14.345 3 16.128 3C16.65 3 17.108 3.05 17.5 3.15V5H16.128C14.804 5 14.401 5.078 13.99 5.298C13.686 5.46 13.46 5.686 13.298 5.99C13.078 6.401 13 6.804 13 8.128V10Z" fill="white"/>
<g clip-path="url(#clip0_843_2857)">
<path d="M62.1211 4.44336C62.9979 4.09254 63.9592 4.00852 64.8838 4.20117C65.8082 4.39388 66.6557 4.85462 67.3193 5.52637L67.3486 5.55664H67.3906C67.7296 5.55426 68.0806 5.59738 68.498 5.53809C68.882 5.48352 69.3278 5.34203 69.915 5.00977C69.6091 6.49447 69.4324 7.16729 68.7646 8.08301L68.7451 8.10938V8.14258C68.7451 11.9414 67.5781 14.7564 65.8262 16.7393C64.0729 18.7234 61.7275 19.8816 59.3623 20.3535C57.7452 20.6761 55.754 20.5731 53.9961 20.2109C53.1179 20.03 52.301 19.7842 51.6201 19.4971C51.037 19.2511 50.5601 18.9759 50.2295 18.6885C50.6606 18.6463 51.412 18.553 52.2441 18.3594C53.2439 18.1267 54.3719 17.749 55.2031 17.1406L55.3193 17.0557L55.1992 16.9766C54.5077 16.5207 52.8117 15.4984 51.7314 13.5166C50.667 11.5637 50.1929 8.66296 51.9141 4.42578C53.5793 6.34325 55.2727 7.66041 56.9951 8.36719C57.5763 8.60556 57.9423 8.72333 58.2314 8.79102C58.5195 8.85841 58.7322 8.8754 58.9922 8.91113L59.2871 8.95215L59.1074 8.77148C59.1323 7.84188 59.4255 6.93867 59.9541 6.17285C60.4906 5.3958 61.2444 4.79414 62.1211 4.44336ZM63.9053 5.90137C63.119 5.90124 62.3638 6.20994 61.8027 6.76074C61.3119 7.24267 61.0038 7.87627 60.9248 8.55371L60.9053 8.84668L60.877 10.4209C60.8756 10.4914 60.8592 10.5613 60.8291 10.625C60.799 10.6887 60.7556 10.7452 60.7021 10.791C60.6487 10.8368 60.5861 10.8716 60.5186 10.8916C60.4511 10.9115 60.3802 10.9166 60.3105 10.9072L58.749 10.6953C56.7175 10.4183 54.7663 9.48248 52.8896 7.91895L52.7578 7.80859L52.7275 7.97754C52.4257 9.64812 52.5679 11.0709 53.1475 12.3018C53.7267 13.532 54.7388 14.5607 56.1562 15.4521L57.9023 16.5498C57.9714 16.5932 58.0296 16.6529 58.0703 16.7236C58.111 16.7944 58.1339 16.8744 58.1367 16.9561C58.1395 17.0377 58.1217 17.1189 58.0859 17.1924C58.0501 17.2658 57.9967 17.3299 57.9307 17.3779L56.3389 18.541L56.1152 18.7041L56.3916 18.7207C57.3447 18.7801 58.2532 18.738 59.0098 18.5879C61.3887 18.1129 63.375 16.9789 64.7656 15.2207C66.1559 13.4627 66.9453 11.0883 66.9453 8.14258C66.9453 7.99705 66.8715 7.78499 66.7441 7.55762C66.6144 7.32598 66.4211 7.06491 66.167 6.82031C65.6584 6.33085 64.8999 5.90145 63.9053 5.90137Z" fill="white" stroke="black" stroke-width="0.2"/>
</g>
<path d="M113 3H103C101.939 3 100.922 3.42143 100.172 4.17157C99.4214 4.92172 99 5.93913 99 7V17C99 18.0609 99.4214 19.0783 100.172 19.8284C100.922 20.5786 101.939 21 103 21H113C114.061 21 115.078 20.5786 115.828 19.8284C116.579 19.0783 117 18.0609 117 17V7C117 5.93913 116.579 4.92172 115.828 4.17157C115.078 3.42143 114.061 3 113 3Z" stroke="white" stroke-width="1.5" stroke-linejoin="round"/>
<path d="M108 16C109.061 16 110.078 15.5786 110.828 14.8284C111.579 14.0783 112 13.0609 112 12C112 10.9391 111.579 9.92172 110.828 9.17157C110.078 8.42143 109.061 8 108 8C106.939 8 105.922 8.42143 105.172 9.17157C104.421 9.92172 104 10.9391 104 12C104 13.0609 104.421 14.0783 105.172 14.8284C105.922 15.5786 106.939 16 108 16V16Z" stroke="white" stroke-width="1.5" stroke-linejoin="round"/>
<path d="M113.5 7.5C113.765 7.5 114.02 7.39464 114.207 7.20711C114.395 7.01957 114.5 6.76522 114.5 6.5C114.5 6.23478 114.395 5.98043 114.207 5.79289C114.02 5.60536 113.765 5.5 113.5 5.5C113.235 5.5 112.98 5.60536 112.793 5.79289C112.605 5.98043 112.5 6.23478 112.5 6.5C112.5 6.76522 112.605 7.01957 112.793 7.20711C112.98 7.39464 113.235 7.5 113.5 7.5Z" fill="white"/>
<path d="M155.5 9.05C156.417 8.113 157.611 7.5 159 7.5C160.459 7.5 161.858 8.07946 162.889 9.11091C163.921 10.1424 164.5 11.5413 164.5 13V20.5H162.5V13C162.5 12.0717 162.131 11.1815 161.475 10.5251C160.818 9.86875 159.928 9.5 159 9.5C158.072 9.5 157.182 9.86875 156.525 10.5251C155.869 11.1815 155.5 12.0717 155.5 13V20.5H153.5V8H155.5V9.05ZM148.5 6C148.102 6 147.721 5.84196 147.439 5.56066C147.158 5.27936 147 4.89782 147 4.5C147 4.10218 147.158 3.72064 147.439 3.43934C147.721 3.15804 148.102 3 148.5 3C148.898 3 149.279 3.15804 149.561 3.43934C149.842 3.72064 150 4.10218 150 4.5C150 4.89782 149.842 5.27936 149.561 5.56066C149.279 5.84196 148.898 6 148.5 6ZM147.5 8H149.5V20.5H147.5V8Z" fill="white"/>
<defs>
<clipPath id="clip0_843_2857">
<rect width="24" height="24" fill="white" transform="translate(48)"/>
</clipPath>
</defs>
</svg>
